<svg id="approved__icon" xmlns="http://www.w3.org/2000/svg" width="59.2" height="59.201" viewBox="0 0 59.2 59.201">
  <path id="Caminho_44" data-name="Caminho 44" d="M213.25,178.08A26.782,26.782,0,1,1,240.031,151.3,26.813,26.813,0,0,1,213.25,178.08Zm0-56.383a29.6,29.6,0,1,0,29.6,29.6A29.635,29.635,0,0,0,213.25,121.7Z" transform="translate(-183.65 -121.697)" fill="#26b46a" fill-rule="evenodd"/>
  <path id="Caminho_45" data-name="Caminho 45" d="M221.576,136.774,206.847,151.5l-9.927-9.926a1.409,1.409,0,0,0-1.993,1.993l10.924,10.924a1.408,1.408,0,0,0,1.993,0A1.321,1.321,0,0,0,208,154.3a1.549,1.549,0,0,0,.195-.159l15.372-15.373a1.41,1.41,0,1,0-1.993-1.994Z" transform="translate(-178.712 -115.031)" fill="#26b46a" fill-rule="evenodd"/>
</svg>
