<svg id="card__icon" xmlns="http://www.w3.org/2000/svg" width="32.933" height="22.433" viewBox="0 0 32.933 22.433">
  <path id="Caminho_23" data-name="Caminho 23" d="M138.259,185.25H111.174a2.927,2.927,0,0,0-2.924,2.924v16.585a2.927,2.927,0,0,0,2.924,2.924h27.086a2.927,2.927,0,0,0,2.924-2.924V188.174A2.927,2.927,0,0,0,138.259,185.25Zm1.492,19.509a1.494,1.494,0,0,1-1.492,1.492H111.174a1.494,1.494,0,0,1-1.492-1.492V188.174a1.494,1.494,0,0,1,1.492-1.492h27.086a1.494,1.494,0,0,1,1.492,1.492Z" transform="translate(-108.25 -185.25)" fill="#fff"/>
  <path id="Caminho_24" data-name="Caminho 24" d="M118.739,202.25h-4.773a.716.716,0,1,0,0,1.432h4.773a.716.716,0,1,0,0-1.432Z" transform="translate(-108.477 -186.022)" fill="#fff"/>
  <path id="Caminho_25" data-name="Caminho 25" d="M127.739,202.25h-4.773a.716.716,0,1,0,0,1.432h4.773a.716.716,0,1,0,0-1.432Z" transform="translate(-108.886 -186.022)" fill="#fff"/>
  <path id="Caminho_26" data-name="Caminho 26" d="M136.739,202.25h-4.773a.716.716,0,1,0,0,1.432h4.773a.716.716,0,1,0,0-1.432Z" transform="translate(-109.294 -186.022)" fill="#fff"/>
  <path id="Caminho_27" data-name="Caminho 27" d="M134.352,191.25a3.1,3.1,0,1,0,3.1,3.1A3.106,3.106,0,0,0,134.352,191.25Zm0,4.773a1.671,1.671,0,1,1,1.671-1.671A1.672,1.672,0,0,1,134.352,196.023Z" transform="translate(-109.294 -185.522)" fill="#fff"/>
</svg>
