<svg xmlns="http://www.w3.org/2000/svg" width="16.037" height="23.327" viewBox="0 0 16.037 23.327">
  <g id="header__safe" transform="translate(-275.951 -75)">
    <path id="Caminho_72" data-name="Caminho 72" d="M289.8,84.476V80.832a5.832,5.832,0,1,0-11.663,0v3.645a2.189,2.189,0,0,0-2.187,2.187V96.14a2.189,2.189,0,0,0,2.187,2.187H289.8a2.189,2.189,0,0,0,2.187-2.187V86.663A2.189,2.189,0,0,0,289.8,84.476ZM279.6,80.832a4.374,4.374,0,1,1,8.748,0v3.645H279.6ZM290.53,96.14a.73.73,0,0,1-.729.729H278.138a.73.73,0,0,1-.729-.729V86.663a.73.73,0,0,1,.729-.729H289.8a.73.73,0,0,1,.729.729Z"/>
    <path id="Caminho_73" data-name="Caminho 73" d="M313.647,145.237a.729.729,0,0,0-.729.729v3.645a.729.729,0,1,0,1.458,0v-3.645A.729.729,0,0,0,313.647,145.237Z" transform="translate(-29.677 -56.387)"/>
  </g>
</svg>
