<svg id="menu__pagamento" xmlns="http://www.w3.org/2000/svg" width="37.085" height="37.085" viewBox="0 0 37.085 37.085">
  <path id="Caminho_39" data-name="Caminho 39" d="M409.731,190.12a18.542,18.542,0,1,0,18.542,18.542A18.564,18.564,0,0,0,409.731,190.12Zm0,35.133a16.591,16.591,0,1,1,16.591-16.591A16.61,16.61,0,0,1,409.731,225.253Z" transform="translate(-391.189 -190.12)" fill="#fff"/>
  <path id="Caminho_40" data-name="Caminho 40" d="M401.883,199.409h6.193a.976.976,0,0,0,0-1.952h-3.67v-2.122a.976.976,0,0,0-1.952,0v2.122h-.572a4.072,4.072,0,1,0,0,8.145h3.1a2.122,2.122,0,0,1,0,4.243h-6.193a.976.976,0,0,0,0,1.952h3.669v2.12a.976.976,0,1,0,1.952,0V211.8h.572a4.073,4.073,0,1,0,0-8.147h-3.1a2.121,2.121,0,1,1,0-4.241Z" transform="translate(-384.887 -186.084)" fill="#fff"/>
</svg>
