<svg xmlns="http://www.w3.org/2000/svg" width="34.025" height="36.499" viewBox="0 0 34.025 36.499">
  <path id="menu__personal" d="M231.77,137.342c-.3-3.07-3.732-5.513-8.144-6.94a1.082,1.082,0,0,0-.121-.042,27.881,27.881,0,0,0-2.922-.751,8.319,8.319,0,0,0,2.621-2.663,7.353,7.353,0,0,0,1.148-3.958v-8.352a7.934,7.934,0,0,0-8.145-7.888h-2.888a7.934,7.934,0,0,0-8.145,7.888v8.352a7.347,7.347,0,0,0,1.159,3.975,8.326,8.326,0,0,0,2.588,2.632c-5.725,1.092-11.171,3.73-11.171,7.776v4.949a.928.928,0,0,0,1.856,0v-4.949c0-1.959,2.689-3.89,6.477-5.132l8.068,7.067a.927.927,0,0,0,1.222,0l8.046-7.042c3.673,1.241,6.3,3.164,6.5,5.169v4.887a.928.928,0,1,0,1.856,0Zm-18.451-28.737h2.888a6.1,6.1,0,0,1,6.289,6.032v.906c-1.675.221-5.823.542-8.455-1.214a7.478,7.478,0,0,0-6.9-.749A6.132,6.132,0,0,1,213.318,108.606Zm0,20.415a6.26,6.26,0,0,1-5.409-3.035,5.547,5.547,0,0,1-.88-3v-7.344a5.908,5.908,0,0,1,5.981.229,12.608,12.608,0,0,0,6.867,1.7,21.737,21.737,0,0,0,2.618-.161v5.571a5.531,5.531,0,0,1-.872,2.983,6.256,6.256,0,0,1-5.417,3.049Zm1.444,8.355-6.545-5.733a28.93,28.93,0,0,1,6.545-.766,28.2,28.2,0,0,1,6.536.777Z" transform="translate(-197.75 -106.75)" fill="#fff"/>
</svg>
