<svg xmlns="http://www.w3.org/2000/svg" width="34.692" height="29.141" viewBox="0 0 34.692 29.141">
  <path id="menu__envio" d="M94.513,161.168l-6.244-6.938a.691.691,0,0,0-.516-.23H66.938a.691.691,0,0,0-.516.23l-6.244,6.938a.692.692,0,0,0-.178.464v20.815a.694.694,0,0,0,.694.694H94a.694.694,0,0,0,.694-.694V161.632A.692.692,0,0,0,94.513,161.168Zm-13.7-5.78h6.63l5,5.551H80.815Zm-5.551,0h4.163v5.551H75.264Zm0,6.938h4.163V165.1H75.264Zm-8.017-6.938h6.63v5.551H62.251ZM93.3,181.753H61.388V162.326H73.877V165.8a.694.694,0,0,0,.694.694h5.551a.694.694,0,0,0,.694-.694v-3.469H93.3Z" transform="translate(-60 -154)" fill="#e2e2e2"/>
</svg>
