<svg xmlns="http://www.w3.org/2000/svg" width="22.477" height="22.452" viewBox="0 0 22.477 22.452">
  <g id="payment__pix" transform="translate(0)">
    <path id="Caminho_41" data-name="Caminho 41" d="M131.751,409.753c.047-.219.069-.443.133-.659a3.289,3.289,0,0,1,.815-1.41c.853-.862,1.714-1.717,2.572-2.574a.148.148,0,0,1,.123-.063c.478.032.956,0,1.434.016a2.919,2.919,0,0,1,.749.086,2.365,2.365,0,0,1,1.042.61q1.652,1.654,3.306,3.305a1.656,1.656,0,0,0,1.178.53,1.579,1.579,0,0,0,1.183-.479c1.094-1.092,2.19-2.18,3.278-3.277a2.41,2.41,0,0,1,1.831-.759,8.511,8.511,0,0,0,1.035-.008.468.468,0,0,1,.425.18c.783.789,1.571,1.572,2.356,2.358a3.331,3.331,0,0,1,.974,1.9,3.248,3.248,0,0,1-.867,2.838c-.851.9-1.742,1.752-2.614,2.626a.159.159,0,0,1-.137.043c-.407-.011-.814-.01-1.222-.014a2.657,2.657,0,0,1-.566-.061,2.346,2.346,0,0,1-1.163-.653q-1.642-1.645-3.287-3.286a1.627,1.627,0,0,0-1.2-.5,1.592,1.592,0,0,0-1.159.476c-1.08,1.08-2.167,2.153-3.238,3.241a2.477,2.477,0,0,1-1.922.8,10.812,10.812,0,0,0-1.248.008.477.477,0,0,1-.424-.183q-1.128-1.135-2.264-2.262a3.545,3.545,0,0,1-1.019-1.723c-.04-.17-.067-.344-.1-.516Z" transform="translate(-131.751 -398.814)" fill="#069bff"/>
    <path id="Caminho_42" data-name="Caminho 42" d="M168.06,379.106h-.387a3.239,3.239,0,0,0-2.371.987q-1.647,1.638-3.288,3.283a.636.636,0,0,1-1.006,0c-1.083-1.082-2.17-2.161-3.248-3.248a3.367,3.367,0,0,0-1.943-1,6.564,6.564,0,0,0-.941-.035h-.159a.235.235,0,0,1,.086-.114l4.1-4.1a3.374,3.374,0,0,1,2.578-1.043,3.212,3.212,0,0,1,2.225.927c1.438,1.415,2.859,2.848,4.287,4.274C168.013,379.045,168.025,379.063,168.06,379.106Z" transform="translate(-150.132 -373.827)" fill="#069bff"/>
    <path id="Caminho_43" data-name="Caminho 43" d="M168.061,441.765c-.011.062-.053.084-.082.114q-2.071,2.07-4.143,4.14a3.337,3.337,0,0,1-2.469,1.022,3.23,3.23,0,0,1-2.315-.941c-1.42-1.4-2.828-2.819-4.241-4.23-.021-.021-.039-.046-.059-.072.056-.045.116-.024.17-.024a5.02,5.02,0,0,0,1.292-.1,3.285,3.285,0,0,0,1.492-.852q1.667-1.658,3.327-3.322a.647.647,0,0,1,1.02,0c1.116,1.113,2.226,2.232,3.348,3.339a3.2,3.2,0,0,0,2.263.928C167.795,441.767,167.926,441.765,168.061,441.765Z" transform="translate(-150.16 -424.588)" fill="#069bff"/>
  </g>
</svg>
